<svg width="654.5px" height="122.1px" xmlns="http://www.w3.org/2000/svg" viewBox="-77.26252441406251 13.968066406250003 654.525048828125 122.0638671875" style="background-color: rgba(0, 0, 0, 0)" preserveAspectRatio="xMidYMid"><defs><linearGradient id="editing-sticker-gradient" x1="0.5" y1="0.2" x2="0.5" y2="0.8"><stop offset="0" stop-color="#ffdd99"></stop><stop offset="1" stop-color="#99ddff"></stop></linearGradient><filter id="editing-sticker" x="-100%" y="-100%" width="300%" height="300%"><feMorphology operator="erode" radius="1" in="SourceAlpha" result="alpha-erode"></feMorphology><feConvolveMatrix order="3,3" divisor="1" kernelMatrix="0 1 0 1 1 1 0 1 0" in="alpha-erode" result="alpha-round"></feConvolveMatrix><feMorphology operator="dilate" radius="3.5" in="alpha-round" result="dilate-shadow"></feMorphology><feGaussianBlur in="dilate-shadow" stdDeviation="1.5" result="shadow"></feGaussianBlur><feFlood flood-color="#fff" result="flood-sticker"></feFlood><feComposite operator="in" in="flood-sticker" in2="alpha-round" result="comp-sticker"></feComposite><feMorphology operator="dilate" radius="3" in="comp-sticker" result="morph-sticker"></feMorphology><feConvolveMatrix order="3,3" divisor="1" kernelMatrix="0 1 0 1 1 1 0 1 0" in="morph-sticker" result="sticker"></feConvolveMatrix><feMerge><feMergeNode in="shadow"></feMergeNode><feMergeNode in="sticker"></feMergeNode><feMergeNode in="SourceGraphic"></feMergeNode></feMerge></filter></defs><g filter="url(#editing-sticker)"><g transform="matrix(1.3,0,0,1.5,-28,164.7)"><path d="M -11.9 -45.8 L -11.9 -45.8 L -11.9 -45.8 Q -13.9 -41 -20.2 -41 L -20.2 -41 L -20.2 -41 Q -23.5 -41 -25.5 -43.3 L -25.5 -43.3 L -25.5 -43.3 Q -27.2 -45.3 -27.2 -47.3 L -27.2 -47.3 L -27.2 -47.3 Q -27.2 -52.4 -24.9 -62.5 L -24.9 -62.5 L -22.5 -75 L -9.5 -76.2 L -13.4 -56 L -13.4 -56 Q -14.5 -51.3 -14.5 -49.6 L -14.5 -49.6 L -14.5 -49.6 Q -14.5 -46 -11.9 -45.8 Z M -21.4 -83.9 L -21.4 -83.9 L -21.4 -83.9 Q -21.4 -86.4 -19.3 -87.7 L -19.3 -87.7 L -19.3 -87.7 Q -17.2 -89 -14.2 -89 L -14.2 -89 L -14.2 -89 Q -11.2 -89 -9.4 -87.7 L -9.4 -87.7 L -9.4 -87.7 Q -7.5 -86.4 -7.5 -83.9 L -7.5 -83.9 L -7.5 -83.9 Q -7.5 -81.4 -9.6 -80.1 L -9.6 -80.1 L -9.6 -80.1 Q -11.6 -78.8 -14.6 -78.8 L -14.6 -78.8 L -14.6 -78.8 Q -17.6 -78.8 -19.5 -80.1 L -19.5 -80.1 L -19.5 -80.1 Q -21.4 -81.4 -21.4 -83.9 Z M 39.6 -41 L 39.6 -41 L 39.6 -41 Q 31.9 -41 31.9 -47.1 L 31.9 -47.1 L 31.9 -47.1 Q 31.9 -49.7 33 -54.8 L 33 -54.8 L 33 -54.8 Q 34.1 -59.9 34.5 -61.9 L 34.5 -61.9 L 34.5 -61.9 Q 35.4 -66.6 35.4 -68.1 L 35.4 -68.1 L 35.4 -68.1 Q 35.4 -71.3 33 -71.3 L 33 -71.3 L 33 -71.3 Q 31.4 -71.3 29.8 -69.1 L 29.8 -69.1 L 29.8 -69.1 Q 28.3 -66.9 27.6 -62.5 L 27.6 -62.5 L 23.6 -42.3 L 11.2 -41 L 14.6 -58.5 L 14.6 -58.5 Q 15.2 -61.3 15.7 -64.6 L 15.7 -64.6 L 15.7 -64.6 Q 16.2 -67.9 16.2 -68.4 L 16.2 -68.4 L 16.2 -68.4 Q 16.2 -71.3 14 -71.3 L 14 -71.3 L 14 -71.3 Q 12.6 -71.3 11 -69.1 L 11 -69.1 L 11 -69.1 Q 9.4 -67 8.5 -62.5 L 8.5 -62.5 L 4.6 -42.3 L -8 -41 L -1.3 -75 L 9.1 -76.2 L 8 -69.8 L 8 -69.8 Q 9.7 -73.2 12.8 -74.7 L 12.8 -74.7 L 12.8 -74.7 Q 15.8 -76.2 20.6 -76.2 L 20.6 -76.2 L 20.6 -76.2 Q 23.4 -76.2 25.2 -74.9 L 25.2 -74.9 L 25.2 -74.9 Q 27 -73.6 27.5 -71.4 L 27.5 -71.4 L 27.5 -71.4 Q 28.6 -73.6 31.4 -74.9 L 31.4 -74.9 L 31.4 -74.9 Q 34.2 -76.2 37.6 -76.2 L 37.6 -76.2 L 37.6 -76.2 Q 41 -76.2 42.7 -75.5 L 42.7 -75.5 L 42.7 -75.5 Q 44.4 -74.8 45.5 -73.6 L 45.5 -73.6 L 45.5 -73.6 Q 47.2 -71.3 47.2 -67.2 L 47.2 -67.2 L 47.2 -67.2 Q 47.2 -63.2 45.5 -54.8 L 45.5 -54.8 L 45.5 -54.8 Q 44.6 -50.7 44.6 -49.2 L 44.6 -49.2 L 44.6 -49.2 Q 44.6 -47.7 45.4 -46.8 L 45.4 -46.8 L 45.4 -46.8 Q 46.3 -45.9 47.6 -45.8 L 47.6 -45.8 L 47.6 -45.8 Q 46.9 -43.6 44.7 -42.3 L 44.7 -42.3 L 44.7 -42.3 Q 42.5 -41 39.6 -41 Z M 55.3 -44.2 L 55.3 -44.2 L 55.3 -44.2 Q 53.8 -45.9 53.1 -48.5 L 53.1 -48.5 L 53.1 -48.5 Q 52.4 -51.2 52.4 -55.4 L 52.4 -55.4 L 52.4 -55.4 Q 52.4 -59.7 53.9 -63.6 L 53.9 -63.6 L 53.9 -63.6 Q 55.4 -67.5 58.1 -70.4 L 58.1 -70.4 L 58.1 -70.4 Q 63.6 -76.2 72.7 -76.2 L 72.7 -76.2 L 72.7 -76.2 Q 75.9 -76.2 78.3 -75.2 L 78.3 -75.2 L 89.2 -76.2 L 84.5 -51.3 L 84.5 -51.3 Q 84.3 -50.5 84.3 -49.1 L 84.3 -49.1 L 84.3 -49.1 Q 84.3 -47.7 85.2 -46.8 L 85.2 -46.8 L 85.2 -46.8 Q 86 -45.9 87.3 -45.8 L 87.3 -45.8 L 87.3 -45.8 Q 86.7 -43.6 84.3 -42.3 L 84.3 -42.3 L 84.3 -42.3 Q 82 -41 79.4 -41 L 79.4 -41 L 79.4 -41 Q 76.8 -41 75 -42 L 75 -42 L 75 -42 Q 73.2 -43 72.7 -44.7 L 72.7 -44.7 L 72.7 -44.7 Q 71.7 -43.1 69.5 -42.1 L 69.5 -42.1 L 69.5 -42.1 Q 67.3 -41 64.4 -41 L 64.4 -41 L 64.4 -41 Q 61.5 -41 59.2 -41.8 L 59.2 -41.8 L 59.2 -41.8 Q 56.8 -42.6 55.3 -44.2 Z M 68.8 -70.2 L 68.8 -70.2 L 68.8 -70.2 Q 68 -69.1 67.4 -67.1 L 67.4 -67.1 L 67.4 -67.1 Q 66.8 -65.2 65.7 -60 L 65.7 -60 L 65.7 -60 Q 64.7 -54.7 64.7 -51 L 64.7 -51 L 64.7 -51 Q 64.7 -47.3 65.2 -46.2 L 65.2 -46.2 L 65.2 -46.2 Q 65.8 -45.1 66.8 -45.1 L 66.8 -45.1 L 66.8 -45.1 Q 68.9 -45.1 70.4 -47.1 L 70.4 -47.1 L 70.4 -47.1 Q 71.9 -49 72.5 -52.5 L 72.5 -52.5 L 75.9 -71.3 L 75.9 -71.3 Q 74.5 -72.4 72.9 -72.4 L 72.9 -72.4 L 72.9 -72.4 Q 71.4 -72.4 70.4 -71.9 L 70.4 -71.9 L 70.4 -71.9 Q 69.5 -71.4 68.8 -70.2 Z M 97 -69.1 L 97 -69.1 L 97 -69.1 Q 99.2 -72.1 102.4 -74.2 L 102.4 -74.2 L 102.4 -74.2 Q 105.7 -76.2 109.8 -76.2 L 109.8 -76.2 L 109.8 -76.2 Q 113.8 -76.2 115.7 -75 L 115.7 -75 L 128.3 -76.2 L 123.9 -51.7 L 123.9 -51.7 Q 121.7 -39.1 116.9 -34.2 L 116.9 -34.2 L 116.9 -34.2 Q 112.4 -29.5 103.6 -29.5 L 103.6 -29.5 L 103.6 -29.5 Q 96.8 -29.5 93 -31.6 L 93 -31.6 L 93 -31.6 Q 89.2 -33.7 89.2 -37.3 L 89.2 -37.3 L 89.2 -37.3 Q 89.2 -39.9 91.2 -41.4 L 91.2 -41.4 L 91.2 -41.4 Q 93.1 -42.9 96.2 -42.9 L 96.2 -42.9 L 96.2 -42.9 Q 98.9 -42.9 100.9 -41.7 L 100.9 -41.7 L 100.9 -41.7 Q 102.2 -41 102.7 -40.1 L 102.7 -40.1 L 102.7 -40.1 Q 101.3 -38.9 101.3 -36.8 L 101.3 -36.8 L 101.3 -36.8 Q 101.3 -34 103.8 -34 L 103.8 -34 L 103.8 -34 Q 108.1 -34 110.5 -44.1 L 110.5 -44.1 L 110.5 -44.1 Q 111.2 -46.9 111.8 -49.6 L 111.8 -49.6 L 111.8 -49.6 Q 108.9 -46.1 102.4 -46.1 L 102.4 -46.1 L 102.4 -46.1 Q 97.9 -46.1 95.2 -48.3 L 95.2 -48.3 L 95.2 -48.3 Q 92.6 -50.5 92.6 -55.6 L 92.6 -55.6 L 92.6 -55.6 Q 92.6 -58.8 93.7 -62.4 L 93.7 -62.4 L 93.7 -62.4 Q 94.8 -66 97 -69.1 Z M 105.3 -55.4 L 105.3 -55.4 L 105.3 -55.4 Q 105.3 -51 107.5 -51 L 107.5 -51 L 107.5 -51 Q 109.1 -51 110.5 -52.7 L 110.5 -52.7 L 110.5 -52.7 Q 111.7 -54 112.1 -56 L 112.1 -56 L 115.4 -72.5 L 115.4 -72.5 Q 115.1 -72.5 114.8 -72.7 L 114.8 -72.7 L 114.8 -72.7 Q 114.1 -72.9 113.3 -72.9 L 113.3 -72.9 L 113.3 -72.9 Q 109.4 -72.9 107.1 -66.5 L 107.1 -66.5 L 107.1 -66.5 Q 105.3 -61.5 105.3 -55.4 Z M 156.7 -53.1 L 156.7 -53.1 L 156.7 -53.1 Q 158.3 -52.1 158.3 -49.7 L 158.3 -49.7 L 158.3 -49.7 Q 158.3 -47.3 157.1 -45.7 L 157.1 -45.7 L 157.1 -45.7 Q 155.9 -44.2 153.9 -43.2 L 153.9 -43.2 L 153.9 -43.2 Q 149.8 -41 145.4 -41 L 145.4 -41 L 145.4 -41 Q 140.9 -41 138.4 -42 L 138.4 -42 L 138.4 -42 Q 135.8 -43 134 -44.8 L 134 -44.8 L 134 -44.8 Q 130.6 -48.1 130.6 -54.4 L 130.6 -54.4 L 130.6 -54.4 Q 130.6 -64 135.9 -69.9 L 135.9 -69.9 L 135.9 -69.9 Q 141.5 -76.2 151.3 -76.2 L 151.3 -76.2 L 151.3 -76.2 Q 157.4 -76.2 160.4 -73.7 L 160.4 -73.7 L 160.4 -73.7 Q 162.6 -71.8 162.6 -68.6 L 162.6 -68.6 L 162.6 -68.6 Q 162.6 -57.4 143.2 -57.4 L 143.2 -57.4 L 143.2 -57.4 Q 142.9 -55.7 142.9 -54.3 L 142.9 -54.3 L 142.9 -54.3 Q 142.9 -51.3 144.2 -50.2 L 144.2 -50.2 L 144.2 -50.2 Q 145.6 -49.1 148 -49.1 L 148 -49.1 L 148 -49.1 Q 150.4 -49.1 153 -50.2 L 153 -50.2 L 153 -50.2 Q 155.6 -51.3 156.7 -53.1 Z M 143.6 -60.1 L 143.6 -60.1 L 143.6 -60.1 Q 148.2 -60.1 150.8 -62.9 L 150.8 -62.9 L 150.8 -62.9 Q 153.4 -65.6 153.4 -69.9 L 153.4 -69.9 L 153.4 -69.9 Q 153.4 -71.4 152.9 -72.2 L 152.9 -72.2 L 152.9 -72.2 Q 152.3 -73 151.2 -73 L 151.2 -73 L 151.2 -73 Q 150.2 -73 149.2 -72.6 L 149.2 -72.6 L 149.2 -72.6 Q 148.3 -72.1 147.3 -70.7 L 147.3 -70.7 L 147.3 -70.7 Q 145 -67.5 143.6 -60.1 Z M 184 -64.8 L 184 -64.8 L 184 -64.8 Q 184.8 -67.2 184.8 -69.2 L 184.8 -69.2 L 184.8 -69.2 Q 184.8 -73 181.8 -73 L 181.8 -73 L 181.8 -73 Q 180.2 -73 178.9 -71.5 L 178.9 -71.5 L 178.9 -71.5 Q 177.6 -70.1 177.6 -68.3 L 177.6 -68.3 L 177.6 -68.3 Q 177.6 -67 178.6 -66 L 178.6 -66 L 178.6 -66 Q 180 -64.6 183.8 -62.3 L 183.8 -62.3 L 183.8 -62.3 Q 187.6 -60 189 -58.1 L 189 -58.1 L 189 -58.1 Q 190.5 -56.2 190.5 -53.6 L 190.5 -53.6 L 190.5 -53.6 Q 190.5 -51 189.2 -48.7 L 189.2 -48.7 L 189.2 -48.7 Q 188 -46.3 185.7 -44.6 L 185.7 -44.6 L 185.7 -44.6 Q 180.9 -41 173.3 -41 L 173.3 -41 L 173.3 -41 Q 169.1 -41 165.9 -43.2 L 165.9 -43.2 L 165.9 -43.2 Q 162.7 -45.3 162.7 -47.8 L 162.7 -47.8 L 162.7 -47.8 Q 162.7 -50.3 164.5 -51.8 L 164.5 -51.8 L 164.5 -51.8 Q 166.4 -53.3 169 -53.3 L 169 -53.3 L 169 -53.3 Q 171.7 -53.3 173.4 -52.2 L 173.4 -52.2 L 173.4 -52.2 Q 172.6 -50.1 172.6 -48.7 L 172.6 -48.7 L 172.6 -48.7 Q 172.6 -44.5 176.1 -44.5 L 176.1 -44.5 L 176.1 -44.5 Q 177.7 -44.5 178.7 -45.5 L 178.7 -45.5 L 178.7 -45.5 Q 179.7 -46.4 179.7 -48.1 L 179.7 -48.1 L 179.7 -48.1 Q 179.7 -51.3 174.2 -54.8 L 174.2 -54.8 L 174.2 -54.8 Q 169.7 -57.7 168.7 -58.9 L 168.7 -58.9 L 168.7 -58.9 Q 167 -60.9 167 -63.5 L 167 -63.5 L 167 -63.5 Q 167 -66.1 168.2 -68.5 L 168.2 -68.5 L 168.2 -68.5 Q 169.4 -70.9 171.7 -72.7 L 171.7 -72.7 L 171.7 -72.7 Q 176.3 -76.2 184.5 -76.2 L 184.5 -76.2 L 184.5 -76.2 Q 188.6 -76.2 191.1 -74.6 L 191.1 -74.6 L 191.1 -74.6 Q 193.6 -72.9 193.6 -70.1 L 193.6 -70.1 L 193.6 -70.1 Q 193.6 -67.3 191.9 -65.7 L 191.9 -65.7 L 191.9 -65.7 Q 190.2 -64.1 187.1 -64.1 L 187.1 -64.1 L 187.1 -64.1 Q 185 -64.1 184 -64.8 Z M 213.6 -69.1 L 213.6 -69.1 L 213.6 -69.1 Q 215.8 -72.1 219.1 -74.2 L 219.1 -74.2 L 219.1 -74.2 Q 222.4 -76.2 226.4 -76.2 L 226.4 -76.2 L 226.4 -76.2 Q 230.5 -76.2 232.4 -75 L 232.4 -75 L 244.9 -76.2 L 240.6 -51.7 L 240.6 -51.7 Q 238.4 -39.1 233.6 -34.2 L 233.6 -34.2 L 233.6 -34.2 Q 229.1 -29.5 220.2 -29.5 L 220.2 -29.5 L 220.2 -29.5 Q 213.5 -29.5 209.7 -31.6 L 209.7 -31.6 L 209.7 -31.6 Q 205.8 -33.7 205.8 -37.3 L 205.8 -37.3 L 205.8 -37.3 Q 205.8 -39.9 207.8 -41.4 L 207.8 -41.4 L 207.8 -41.4 Q 209.8 -42.9 212.9 -42.9 L 212.9 -42.9 L 212.9 -42.9 Q 215.6 -42.9 217.6 -41.7 L 217.6 -41.7 L 217.6 -41.7 Q 218.8 -41 219.4 -40.1 L 219.4 -40.1 L 219.4 -40.1 Q 217.9 -38.9 217.9 -36.8 L 217.9 -36.8 L 217.9 -36.8 Q 217.9 -34 220.5 -34 L 220.5 -34 L 220.5 -34 Q 224.8 -34 227.2 -44.1 L 227.2 -44.1 L 227.2 -44.1 Q 227.9 -46.9 228.5 -49.6 L 228.5 -49.6 L 228.5 -49.6 Q 225.6 -46.1 219.1 -46.1 L 219.1 -46.1 L 219.1 -46.1 Q 214.5 -46.1 211.9 -48.3 L 211.9 -48.3 L 211.9 -48.3 Q 209.3 -50.5 209.3 -55.6 L 209.3 -55.6 L 209.3 -55.6 Q 209.3 -58.8 210.4 -62.4 L 210.4 -62.4 L 210.4 -62.4 Q 211.5 -66 213.6 -69.1 Z M 222 -55.4 L 222 -55.4 L 222 -55.4 Q 222 -51 224.2 -51 L 224.2 -51 L 224.2 -51 Q 225.7 -51 227.2 -52.7 L 227.2 -52.7 L 227.2 -52.7 Q 228.4 -54 228.8 -56 L 228.8 -56 L 232.1 -72.5 L 232.1 -72.5 Q 231.8 -72.5 231.4 -72.7 L 231.4 -72.7 L 231.4 -72.7 Q 230.8 -72.9 230 -72.9 L 230 -72.9 L 230 -72.9 Q 226.1 -72.9 223.8 -66.5 L 223.8 -66.5 L 223.8 -66.5 Q 222 -61.5 222 -55.4 Z M 250.2 -44.2 L 250.2 -44.2 L 250.2 -44.2 Q 248.7 -45.9 248 -48.5 L 248 -48.5 L 248 -48.5 Q 247.4 -51.2 247.4 -55.4 L 247.4 -55.4 L 247.4 -55.4 Q 247.4 -59.7 248.8 -63.6 L 248.8 -63.6 L 248.8 -63.6 Q 250.3 -67.5 253 -70.4 L 253 -70.4 L 253 -70.4 Q 258.5 -76.2 267.6 -76.2 L 267.6 -76.2 L 267.6 -76.2 Q 270.9 -76.2 273.2 -75.2 L 273.2 -75.2 L 284.2 -76.2 L 279.4 -51.3 L 279.4 -51.3 Q 279.2 -50.5 279.2 -49.1 L 279.2 -49.1 L 279.2 -49.1 Q 279.2 -47.7 280.1 -46.8 L 280.1 -46.8 L 280.1 -46.8 Q 281 -45.9 282.3 -45.8 L 282.3 -45.8 L 282.3 -45.8 Q 281.6 -43.6 279.3 -42.3 L 279.3 -42.3 L 279.3 -42.3 Q 276.9 -41 274.3 -41 L 274.3 -41 L 274.3 -41 Q 271.7 -41 269.9 -42 L 269.9 -42 L 269.9 -42 Q 268.2 -43 267.7 -44.7 L 267.7 -44.7 L 267.7 -44.7 Q 266.6 -43.1 264.5 -42.1 L 264.5 -42.1 L 264.5 -42.1 Q 262.3 -41 259.4 -41 L 259.4 -41 L 259.4 -41 Q 256.5 -41 254.1 -41.8 L 254.1 -41.8 L 254.1 -41.8 Q 251.7 -42.6 250.2 -44.2 Z M 263.7 -70.2 L 263.7 -70.2 L 263.7 -70.2 Q 263 -69.1 262.4 -67.1 L 262.4 -67.1 L 262.4 -67.1 Q 261.7 -65.2 260.7 -60 L 260.7 -60 L 260.7 -60 Q 259.6 -54.7 259.6 -51 L 259.6 -51 L 259.6 -51 Q 259.6 -47.3 260.2 -46.2 L 260.2 -46.2 L 260.2 -46.2 Q 260.8 -45.1 261.8 -45.1 L 261.8 -45.1 L 261.8 -45.1 Q 263.8 -45.1 265.3 -47.1 L 265.3 -47.1 L 265.3 -47.1 Q 266.8 -49 267.4 -52.5 L 267.4 -52.5 L 270.8 -71.3 L 270.8 -71.3 Q 269.5 -72.4 267.9 -72.4 L 267.9 -72.4 L 267.9 -72.4 Q 266.3 -72.4 265.4 -71.9 L 265.4 -71.9 L 265.4 -71.9 Q 264.5 -71.4 263.7 -70.2 Z M 302.9 -45.8 L 302.9 -45.8 L 302.9 -45.8 Q 300.9 -41 294.6 -41 L 294.6 -41 L 294.6 -41 Q 291.4 -41 289.4 -43.3 L 289.4 -43.3 L 289.4 -43.3 Q 287.7 -45.1 287.7 -47.3 L 287.7 -47.3 L 287.7 -47.3 Q 287.7 -52.1 289.9 -62.5 L 289.9 -62.5 L 294.6 -87.1 L 307.6 -88.4 L 301.4 -56 L 301.4 -56 Q 300.3 -51.3 300.3 -49.6 L 300.3 -49.6 L 300.3 -49.6 Q 300.3 -46 302.9 -45.8 Z M 323.7 -45.8 L 323.7 -45.8 L 323.7 -45.8 Q 321.7 -41 315.3 -41 L 315.3 -41 L 315.3 -41 Q 312.1 -41 310.1 -43.3 L 310.1 -43.3 L 310.1 -43.3 Q 308.4 -45.1 308.4 -47.3 L 308.4 -47.3 L 308.4 -47.3 Q 308.4 -52.1 310.7 -62.5 L 310.7 -62.5 L 315.3 -87.1 L 328.3 -88.4 L 322.1 -56 L 322.1 -56 Q 321 -51.3 321 -49.6 L 321 -49.6 L 321 -49.6 Q 321 -46 323.7 -45.8 Z M 355 -53.1 L 355 -53.1 L 355 -53.1 Q 356.6 -52.1 356.6 -49.7 L 356.6 -49.7 L 356.6 -49.7 Q 356.6 -47.3 355.4 -45.7 L 355.4 -45.7 L 355.4 -45.7 Q 354.2 -44.2 352.2 -43.2 L 352.2 -43.2 L 352.2 -43.2 Q 348.1 -41 343.7 -41 L 343.7 -41 L 343.7 -41 Q 339.3 -41 336.7 -42 L 336.7 -42 L 336.7 -42 Q 334.1 -43 332.4 -44.8 L 332.4 -44.8 L 332.4 -44.8 Q 329 -48.1 329 -54.4 L 329 -54.4 L 329 -54.4 Q 329 -64 334.2 -69.9 L 334.2 -69.9 L 334.2 -69.9 Q 339.9 -76.2 349.6 -76.2 L 349.6 -76.2 L 349.6 -76.2 Q 355.7 -76.2 358.7 -73.7 L 358.7 -73.7 L 358.7 -73.7 Q 361 -71.8 361 -68.6 L 361 -68.6 L 361 -68.6 Q 361 -57.4 341.5 -57.4 L 341.5 -57.4 L 341.5 -57.4 Q 341.3 -55.7 341.3 -54.3 L 341.3 -54.3 L 341.3 -54.3 Q 341.3 -51.3 342.6 -50.2 L 342.6 -50.2 L 342.6 -50.2 Q 343.9 -49.1 346.3 -49.1 L 346.3 -49.1 L 346.3 -49.1 Q 348.8 -49.1 351.3 -50.2 L 351.3 -50.2 L 351.3 -50.2 Q 353.9 -51.3 355 -53.1 Z M 342 -60.1 L 342 -60.1 L 342 -60.1 Q 346.5 -60.1 349.1 -62.9 L 349.1 -62.9 L 349.1 -62.9 Q 351.8 -65.6 351.8 -69.9 L 351.8 -69.9 L 351.8 -69.9 Q 351.8 -71.4 351.2 -72.2 L 351.2 -72.2 L 351.2 -72.2 Q 350.7 -73 349.6 -73 L 349.6 -73 L 349.6 -73 Q 348.5 -73 347.6 -72.6 L 347.6 -72.6 L 347.6 -72.6 Q 346.6 -72.1 345.7 -70.7 L 345.7 -70.7 L 345.7 -70.7 Q 343.3 -67.5 342 -60.1 Z M 383.2 -60.3 L 383.2 -60.3 L 383.2 -60.3 Q 385.5 -64.4 385.5 -68.6 L 385.5 -68.6 L 385.5 -68.6 Q 385.5 -71.3 383.5 -71.3 L 383.5 -71.3 L 383.5 -71.3 Q 382 -71.3 380.4 -68.7 L 380.4 -68.7 L 380.4 -68.7 Q 378.7 -66.1 378.2 -62.7 L 378.2 -62.7 L 374.9 -42.3 L 361.6 -41 L 368.1 -75 L 378.7 -76.2 L 377.6 -69.8 L 377.6 -69.8 Q 380.7 -76.2 387.7 -76.2 L 387.7 -76.2 L 387.7 -76.2 Q 391.4 -76.2 393.5 -74.3 L 393.5 -74.3 L 393.5 -74.3 Q 395.5 -72.4 395.5 -68.5 L 395.5 -68.5 L 395.5 -68.5 Q 395.5 -64.5 392.9 -62 L 392.9 -62 L 392.9 -62 Q 390.3 -59.5 385.9 -59.5 L 385.9 -59.5 L 385.9 -59.5 Q 384 -59.5 383.2 -60.3 Z M 416.8 -49.6 L 416.8 -49.6 L 416.8 -49.6 Q 413.5 -46.1 407.4 -46.1 L 407.4 -46.1 L 407.4 -46.1 Q 399.8 -46.1 398.2 -51.7 L 398.2 -51.7 L 398.2 -51.7 Q 397.7 -53.3 397.7 -55.2 L 397.7 -55.2 L 397.7 -55.2 Q 397.7 -57 398.1 -59 L 398.1 -59 L 401.1 -75 L 414.1 -76.2 L 410.6 -57.6 L 410.6 -57.6 Q 410.4 -56.8 410.3 -55.9 L 410.3 -55.9 L 410.3 -55.9 Q 410.1 -55 410.1 -54.1 L 410.1 -54.1 L 410.1 -54.1 Q 410.1 -53.1 410.4 -52.5 L 410.4 -52.5 L 410.4 -52.5 Q 410.7 -51.9 411.2 -51.5 L 411.2 -51.5 L 411.2 -51.5 Q 411.9 -51 413.3 -51 L 413.3 -51 L 413.3 -51 Q 414.7 -51 415.9 -52.7 L 415.9 -52.7 L 415.9 -52.7 Q 417 -54.4 417.6 -57.2 L 417.6 -57.2 L 421.1 -75 L 433.7 -76.2 L 428.9 -51.1 L 428.9 -51.1 Q 426.6 -38.8 421.7 -33.9 L 421.7 -33.9 L 421.7 -33.9 Q 419.2 -31.4 416 -30.5 L 416 -30.5 L 416 -30.5 Q 412.8 -29.5 408.6 -29.5 L 408.6 -29.5 L 408.6 -29.5 Q 401.9 -29.5 398 -31.6 L 398 -31.6 L 398 -31.6 Q 394.2 -33.7 394.2 -37.2 L 394.2 -37.2 L 394.2 -37.2 Q 394.2 -39.8 396.2 -41.3 L 396.2 -41.3 L 396.2 -41.3 Q 398.2 -42.8 401.2 -42.8 L 401.2 -42.8 L 401.2 -42.8 Q 403.9 -42.8 406 -41.7 L 406 -41.7 L 406 -41.7 Q 407.2 -41 407.8 -40.1 L 407.8 -40.1 L 407.8 -40.1 Q 406.3 -38.8 406.3 -36.7 L 406.3 -36.7 L 406.3 -36.7 Q 406.3 -33.9 408.8 -33.9 L 408.8 -33.9 L 408.8 -33.9 Q 413.1 -33.9 415.5 -43.6 L 415.5 -43.6 L 415.5 -43.6 Q 416.2 -46.5 416.8 -49.6 Z" fill="url(#editing-sticker-gradient)" stroke="#000000" stroke-width="2.5"></path></g></g><style>text {
  font-size: 64px;
  font-family: Arial Black;
  dominant-baseline: central;
  text-anchor: middle;
}</style></svg>